<svg xmlns="http://www.w3.org/2000/svg" viewBox="0 0 24 24">
    <path d="M19.7 21.1a.32.32 0 0 1-.2-.06l-9.28-7.46-.02-.02-6.84-6.84A14.9 14.9 0 0 1 .89 3.45 1.89 1.89 0 0 1 3.45.88c1.2.67 2.3 1.5 3.27 2.48l6.84 6.84.02.02 7.46 9.27a.32.32 0 0 1-.03.43l-1.09 1.1a.32.32 0 0 1-.22.09Zm-9.06-8.01 9.03 7.26.68-.68-7.26-9.03-6.83-6.82a14.25 14.25 0 0 0-3.13-2.37 1.24 1.24 0 0 0-1.68 1.68c.64 1.15 1.44 2.2 2.37 3.13l6.82 6.83Z"/>
    <path d="M20.06 19.12a.33.33 0 0 1-.23-.56l2.74-2.74-.6-.6a.66.66 0 0 0-.6-.18l-3.86.82a.32.32 0 0 1-.13-.64l3.86-.81a1.31 1.31 0 0 1 1.18.35l.84.83a.32.32 0 0 1 0 .46l-2.97 2.97a.32.32 0 0 1-.23.1Zm-4.24 4.23a.32.32 0 0 1-.23-.1l-.83-.83a1.31 1.31 0 0 1-.35-1.18l.81-3.86a.32.32 0 0 1 .64.13l-.82 3.86a.65.65 0 0 0 .18.6l.6.6 2.74-2.74a.32.32 0 0 1 .46.46l-2.97 2.97a.32.32 0 0 1-.23.1Zm5.51-1.7a.32.32 0 0 1-.23-.1l-4.14-4.13a.32.32 0 0 1 .46-.46l4.14 4.14a.33.33 0 0 1-.23.55Zm-7.84-10.7a.32.32 0 0 1-.18-.6l7.5-4.88-1.68-1.69a.86.86 0 0 0-.9-.2L9.5 6.78a.32.32 0 0 1-.23-.61l8.75-3.2a1.5 1.5 0 0 1 1.58.35l1.97 1.97a.32.32 0 0 1-.05.5l-7.85 5.1a.32.32 0 0 1-.17.06Z"/>
    <path d="M10.93 6.23a.32.32 0 0 1-.23-.1l-.7-.7a.65.65 0 0 1 0-.91l.66-.66a.66.66 0 0 1 .92 0l1.22 1.22a.32.32 0 0 1-.46.46l-1.22-1.22-.66.66.7.7a.32.32 0 0 1-.23.55ZM5.52 21.65a.32.32 0 0 1-.23-.1L3.32 19.6a1.5 1.5 0 0 1-.34-1.6l3.19-8.75a.32.32 0 0 1 .6.22l-3.19 8.76a.85.85 0 0 0 .2.89l1.69 1.69 4.88-7.5a.33.33 0 0 1 .54-.02.32.32 0 0 1 0 .36l-5.1 7.85a.33.33 0 0 1-.27.14Z"/>
    <path d="M5.3 12.89a.32.32 0 0 1-.22-.1l-1.22-1.21a.65.65 0 0 1 0-.92l.66-.66a.66.66 0 0 1 .92 0l.7.7a.32.32 0 0 1-.46.46l-.7-.7-.66.66 1.22 1.22a.32.32 0 0 1-.23.55Z"/>
</svg>
