<svg xmlns="http://www.w3.org/2000/svg" viewBox="0 0 30 30">
    <path d="M28.21 12.48h-5.39c.6-.7 1.15-1.29 1.7-1.79.97-.9 1.97-1.77 2.99-2.62.57.53 1.5.5 2.05-.05a1.5 1.5 0 0 0 0-2.11L24.1.44a1.5 1.5 0 0 0-2.16 2.06 74.79 74.79 0 0 1-2.66 3.05c-.3.33-.62.65-.97.97-.04-.3-.1-.61-.2-.92a1 1 0 0 0-.7-.7 7.5 7.5 0 0 0-7.25 1.86.44.44 0 1 0 .61.63 6.62 6.62 0 0 1 6.4-1.65c.05.01.09.05.1.1a6.61 6.61 0 0 1-1.9 6.64H11.3l3.22-3.02a.44.44 0 1 0-.6-.64l-3.44 3.22A7.5 7.5 0 0 0 .97 4.9c-.33.1-.6.36-.7.7a7.5 7.5 0 0 0 1.53 6.88h-.01a1.79 1.79 0 0 0-.47 3.51v1.03c0 5.05 3.52 9.3 8.23 10.4v.38c0 1.21.99 2.2 2.2 2.2h6.5a2.2 2.2 0 0 0 2.2-2.2v-.37a10.6 10.6 0 0 0 5.92-3.77.44.44 0 0 0-.69-.54 9.77 9.77 0 0 1-7.7 3.72h-5.97a9.83 9.83 0 0 1-9.81-9.82v-.97h25.6v.97a9.7 9.7 0 0 1-1.06 4.45.44.44 0 1 0 .78.4 10.58 10.58 0 0 0 1.16-4.85V16a1.79 1.79 0 0 0-.47-3.51ZM10.43 27.6c.52.07 1.04.11 1.58.11H18c.53 0 1.06-.04 1.58-.11v.2c0 .73-.6 1.32-1.32 1.32h-6.5c-.73 0-1.32-.6-1.32-1.32v-.2ZM22.6 1.06a.62.62 0 0 1 .87 0l5.47 5.47c.24.23.24.63 0 .87a.62.62 0 0 1-.87 0L22.6 1.93a.62.62 0 0 1 0-.87Zm-4.22 6.57c.57-.49 1.08-.97 1.54-1.48.9-.99 1.79-2 2.63-3.03l4.33 4.33c-1 .84-2 1.7-2.96 2.6-.71.65-1.45 1.45-2.24 2.43h-5.1a7.5 7.5 0 0 0 1.8-4.85ZM1.12 5.83a.14.14 0 0 1 .1-.09 6.62 6.62 0 0 1 8.36 6.74h-1.2l-3.9-3.66a.44.44 0 0 0-.6.64l3.22 3.02H3.02a6.62 6.62 0 0 1-1.9-6.64Zm27.1 9.35H1.78a.9.9 0 0 1 0-1.82H28.2a.9.9 0 0 1 0 1.82ZM4.58 17.9a.44.44 0 0 0-.87.1 8.35 8.35 0 0 0 8.3 7.36.44.44 0 1 0 0-.88 7.47 7.47 0 0 1-7.43-6.58Z"/>
</svg>
