<svg xmlns="http://www.w3.org/2000/svg" viewBox="0 0 30 30">
    <path d="m26.2 19.2-.7-2.45a.5.5 0 0 0-.23-.3l-8.1-4.56.83-8.83a.5.5 0 0 0-.44-.54 11.17 11.17 0 0 0-9.94 4L3.9 4.41a2.6 2.6 0 0 0-3.56.99 2.61 2.61 0 0 0 1 3.55l1.02.57a.5.5 0 1 0 .48-.86l-1.02-.58A1.62 1.62 0 0 1 3.4 5.27l3.85 2.17a11.18 11.18 0 0 0 5.08 10.37l-.28 1.46a4.19 4.19 0 1 0 .95.32l.24-1.24a11.23 11.23 0 0 0 11.5-.65l.44 1.53a4.2 4.2 0 1 0 1.01-.03ZM13.5 3.81a10.2 10.2 0 0 1 3.46-.35l-.75 7.9L8.5 7a10.14 10.14 0 0 1 5.01-3.2Zm.89 19.56a3.2 3.2 0 1 1-6.4 0 3.2 3.2 0 0 1 6.4 0Zm-1.87-6.62A10.19 10.19 0 0 1 8.2 7.98l5.4 3.04-1.08 5.73Zm8.67 1.51a10.2 10.2 0 0 1-7.77-.94l1.09-5.79 9.6 5.4c-.9.6-1.88 1.04-2.92 1.33Zm4.61 8.3a3.2 3.2 0 1 1 .01-6.4 3.2 3.2 0 0 1 0 6.4Z"/>
    <path d="M11.2 20.86a2.52 2.52 0 1 0 0 5.03 2.52 2.52 0 0 0 0-5.03Zm0 4.04a1.53 1.53 0 1 1 0-3.06 1.53 1.53 0 0 1 0 3.06Zm14.61-4.04a2.52 2.52 0 1 0 .01 5.03 2.52 2.52 0 0 0 0-5.03Zm0 4.04a1.53 1.53 0 1 1 0-3.06 1.53 1.53 0 0 1 0 3.06Z"/>
</svg>
