<svg xmlns="http://www.w3.org/2000/svg" viewBox="0 0 24 24">
    <path d="M22.9 5.26H6.96l2.02-2.02a1.1 1.1 0 0 0 0-1.57L7.92.61a1.1 1.1 0 0 0-1.56 0L.1 6.86a.35.35 0 0 0 0 .5l6.26 6.26a1.1 1.1 0 0 0 1.56 0l1.06-1.07a1.1 1.1 0 0 0 0-1.56L6.96 8.97H22.9c.6 0 1.1-.5 1.1-1.1v-1.5c0-.62-.5-1.11-1.1-1.11Zm.4 2.6a.4.4 0 0 1-.4.4H6.1a.35.35 0 0 0-.24.6l2.62 2.63a.4.4 0 0 1 0 .56l-1.06 1.07a.4.4 0 0 1-.57 0l-6-6 6-6.01a.4.4 0 0 1 .57 0l1.06 1.06a.4.4 0 0 1 0 .57L5.86 5.36a.35.35 0 0 0 .25.6H22.9c.22 0 .4.18.4.4v1.5Z"/>
    <path d="M17.64 10.38a1.1 1.1 0 0 0-1.56 0l-1.06 1.07a1.1 1.1 0 0 0 0 1.56l2.02 2.02H1.1c-.6 0-1.1.5-1.1 1.1v1.5c0 .62.5 1.11 1.1 1.11h15.94l-2.02 2.02a1.1 1.1 0 0 0 0 1.57l1.06 1.06a1.1 1.1 0 0 0 1.56 0l6.26-6.25a.35.35 0 0 0 0-.5l-6.26-6.26Zm-.5 12.51a.4.4 0 0 1-.56 0l-1.06-1.06a.4.4 0 0 1 0-.57l2.62-2.62a.35.35 0 0 0-.25-.6H1.1a.4.4 0 0 1-.4-.4v-1.5c0-.23.18-.4.4-.4h16.8a.35.35 0 0 0 .24-.6l-2.62-2.63a.4.4 0 0 1 0-.56l1.06-1.07a.4.4 0 0 1 .57 0l6 6-6 6.01Z"/>
</svg>
