<svg xmlns="http://www.w3.org/2000/svg" viewBox="0 0 20 20">
  <path d="M19.38 13.44h-.32v-2.5a1.25 1.25 0 0 0-1.25-1.25V4.38a1.25 1.25 0 0 0-1.25-1.25H3.44a1.25 1.25 0 0 0-1.25 1.25v5.3a1.25 1.25 0 0 0-1.25 1.26v2.5H.63a.31.31 0 0 0-.32.31V15a.31.31 0 0 0 .32.31h.3v1.25a.31.31 0 0 0 .32.32h.94a.31.31 0 0 0 .3-.26l.27-1.3h14.48l.27 1.3a.31.31 0 0 0 .3.25h.94a.31.31 0 0 0 .31-.3V15.3h.32a.31.31 0 0 0 .3-.31v-1.25a.31.31 0 0 0-.3-.31ZM2.8 4.38a.63.63 0 0 1 .63-.63h13.12a.63.63 0 0 1 .63.63v5.3h-.63V8.45A1.25 1.25 0 0 0 15.3 7.2h-3.75a1.25 1.25 0 0 0-1.25 1.25V9.7h-.6V8.44a1.25 1.25 0 0 0-1.25-1.25H4.69a1.25 1.25 0 0 0-1.25 1.25v1.25H2.8V4.38Zm13.13 4.06v1.25h-5V8.44a.63.63 0 0 1 .62-.63h3.75a.63.63 0 0 1 .63.63Zm-6.88 0v1.25h-5V8.44a.63.63 0 0 1 .63-.63h3.75a.63.63 0 0 1 .62.63Zm-7.5 2.5a.63.63 0 0 1 .63-.63H17.8a.63.63 0 0 1 .63.63v2.5H1.56v-2.5Zm.37 5.31h-.37v-.94h.56l-.19.94Zm16.5 0h-.36l-.19-.94h.56v.94Zm.63-1.56H.94v-.63h18.12v.63Z"/>
</svg>
