<svg xmlns="http://www.w3.org/2000/svg" viewBox="0 0 30 30">
    <path d="m28.94 23.56-.27-.14a.97.97 0 0 1-.54-.88c0-1.05-.87-1.91-1.92-1.91h-9.34v-.94h9.38c.26 0 .47-.21.47-.47v-1.4c0-.88-.6-1.62-1.42-1.83-.22-4.6-4.25-8.33-8.9-8.88V6.08a1.64 1.64 0 0 0-.23-3.27h-2.34a1.64 1.64 0 0 0-.24 3.27V7.1c-4.89.58-8.68 4.5-8.9 8.88-.8.2-1.4.95-1.4 1.82v1.4c0 .27.2.48.46.48h9.38v.93H3.79c-1.05 0-1.92.87-1.92 1.92 0 .38-.2.71-.54.88l-.27.14A1.9 1.9 0 0 0 0 25.27v1.45c0 .26.21.47.47.47h29.06c.26 0 .47-.21.47-.47v-1.45c0-.73-.4-1.39-1.06-1.71ZM13.12 4.46c0-.4.32-.71.7-.71h2.35a.7.7 0 0 1 0 1.4h-2.34a.7.7 0 0 1-.7-.7Zm1.41 2.57V6.1h.94v.94h-.94Zm.3.94h.34c5 0 8.93 3.85 9.19 7.97H5.64c.26-4.12 4.19-7.97 9.2-7.97ZM4.22 17.8c0-.51.42-.93.94-.93h19.68c.52 0 .94.42.94.93v.94H4.22v-.94Zm9.84 1.88h1.88v.93h-1.88v-.93Zm15 6.56H.94v-.98c0-.37.2-.7.54-.88l.27-.13a1.9 1.9 0 0 0 1.06-1.72c0-.54.44-.98.98-.98h22.42c.54 0 .98.44.98.98 0 .73.4 1.39 1.06 1.72l.27.13c.33.17.54.5.54.88v.98Z"/>
</svg>
