<svg xmlns="http://www.w3.org/2000/svg" viewBox="0 0 30 30">
    <path d="M26.72 3.75h-2.34v-.94a1.87 1.87 0 1 0-3.75 0v.94h-3.75v-.94a1.87 1.87 0 1 0-3.75 0v.94H9.38v-.94a1.88 1.88 0 0 0-3.75 0v.94H3.28A2.34 2.34 0 0 0 .94 6.09v18.75a2.34 2.34 0 0 0 2.34 2.35h13.13a.47.47 0 0 0 0-.94H3.28a1.41 1.41 0 0 1-1.4-1.4V10.3h26.25v7.97a.47.47 0 1 0 .93 0V6.1a2.34 2.34 0 0 0-2.34-2.34Zm-5.16-.94a.94.94 0 0 1 1.88 0v2.81a.94.94 0 0 1-1.88 0v-2.8Zm-7.5 0a.94.94 0 0 1 1.88 0v2.81a.94.94 0 0 1-1.88 0v-2.8Zm-7.5 0a.94.94 0 1 1 1.88 0v2.81a.94.94 0 0 1-1.88 0v-2.8Zm21.57 6.56H1.88V6.1a1.41 1.41 0 0 1 1.4-1.4h2.35v.93a1.88 1.88 0 0 0 3.75 0V4.7h3.74v.93a1.88 1.88 0 0 0 3.76 0V4.7h3.75v.93a1.88 1.88 0 0 0 3.75 0V4.7h2.34a1.41 1.41 0 0 1 1.4 1.4v3.29Z"/>
    <path d="M14.06 13.6a.94.94 0 0 0-.94-.94h-1.87a.94.94 0 0 0-.94.93V15a.94.94 0 0 0 .94.94h1.88a.94.94 0 0 0 .93-.94v-1.4ZM11.25 15v-1.4h1.88V15h-1.88Zm-2.81-1.4a.94.94 0 0 0-.94-.94H5.63a.94.94 0 0 0-.94.93V15a.94.94 0 0 0 .94.94H7.5a.94.94 0 0 0 .94-.94v-1.4ZM5.63 15v-1.4H7.5V15H5.63Zm18.75.94a.94.94 0 0 0 .93-.94v-1.4a.94.94 0 0 0-.93-.94H22.5a.94.94 0 0 0-.94.93V15a.94.94 0 0 0 .94.94h1.88Zm-1.88-2.35h1.88V15H22.5v-1.4Zm-8.44 4.22a.94.94 0 0 0-.94-.93h-1.87a.94.94 0 0 0-.94.93v1.4a.94.94 0 0 0 .94.95h1.88a.94.94 0 0 0 .93-.94v-1.4Zm-2.81 1.4v-1.4h1.88v1.4h-1.88Zm-2.81-1.4a.94.94 0 0 0-.94-.93H5.63a.94.94 0 0 0-.94.93v1.4a.94.94 0 0 0 .94.95H7.5a.94.94 0 0 0 .94-.94v-1.4Zm-2.81 1.4v-1.4H7.5v1.4H5.63Zm7.5 1.89h-1.88a.94.94 0 0 0-.94.93v1.4a.94.94 0 0 0 .94.95h1.88a.94.94 0 0 0 .93-.94v-1.4a.94.94 0 0 0-.94-.95Zm-1.88 2.34v-1.4h1.88v1.4h-1.88Zm5.63-7.5h1.87a.94.94 0 0 0 .94-.94v-1.4a.94.94 0 0 0-.94-.94h-1.88a.94.94 0 0 0-.93.93V15a.94.94 0 0 0 .94.94Zm0-2.35h1.87V15h-1.88v-1.4Zm-.94 5.63a.94.94 0 0 0 .94.94.47.47 0 1 0 0-.94v-1.4h1.87a.47.47 0 0 0 0-.95h-1.88a.94.94 0 0 0-.93.94v1.4ZM7.5 21.1H5.63a.94.94 0 0 0-.94.93v1.4a.94.94 0 0 0 .94.95H7.5a.94.94 0 0 0 .94-.94v-1.4a.94.94 0 0 0-.94-.95Zm-1.87 2.34v-1.4H7.5v1.4H5.63Z"/>
    <path d="M22.97 16.88a6.1 6.1 0 1 0 0 12.18 6.1 6.1 0 0 0 0-12.18Zm0 11.25a5.16 5.16 0 1 1 0-10.32 5.16 5.16 0 0 1 0 10.32Z"/>
    <path d="m25.68 21-3.65 3.65-1.66-1.66a.47.47 0 0 0-.66.66l1.99 2a.47.47 0 0 0 .66 0l3.98-3.98a.47.47 0 0 0-.66-.67Z"/>

</svg>
