<svg xmlns="http://www.w3.org/2000/svg" viewBox="0 0 40 40">
  <path d="m19.24 21.17-4.2-1.26v-1.7a6.82 6.82 0 0 0 2.75-4.99 1.98 1.98 0 0 0 .72-3.38V5.79c0-1.11-.57-2.15-1.49-2.78a2.65 2.65 0 0 0-2.57-1.97H8.91c-3 0-5.44 2.44-5.44 5.44v3.36a1.97 1.97 0 0 0 .7 3.38 6.82 6.82 0 0 0 2.76 4.99v1.7L1.9 21.42A2.65 2.65 0 0 0 0 23.97v6.78c0 .32.26.58.59.58h.1v7.04a.59.59 0 0 0 1.18 0v-7.04h2.29v7.04a.59.59 0 1 0 1.17 0V27.28c0-.1-.02-.18-.06-.26l-1.39-2.78a.59.59 0 1 0-1.04.53l1.32 2.65v2.74H1.18v-6.19c0-.66.42-1.24 1.06-1.43l2.1-.63a6.86 6.86 0 0 0 11.1 3.61 6.83 6.83 0 0 0 2.2-3.6l1.27.37a.58.58 0 1 0 .33-1.12Zm-13.9-8.45a.59.59 0 0 0-.6-.59.8.8 0 0 1-.8-.8.8.8 0 0 1 .4-.69l.04-.02a.8.8 0 0 1 .37-.09h.88a1.3 1.3 0 0 0 1.22-.87l.4-1.21c1.38-.03 5.72-.23 8.16-1.45a.59.59 0 1 0-.53-1.04c-2.61 1.3-8 1.32-8.05 1.32a.59.59 0 0 0-.56.4l-.53 1.6a.1.1 0 0 1-.1.08h-1V6.48A4.27 4.27 0 0 1 8.9 2.2h5.54c.74 0 1.36.53 1.47 1.26a.6.6 0 0 0 .3.42 2.2 2.2 0 0 1 1.11 1.9v4.35c0 .2.11.4.3.5.25.15.4.4.4.7a.8.8 0 0 1-.8.8.59.59 0 0 0-.59.58 5.66 5.66 0 0 1-11.3 0Zm8.53 6.19v1.44a2.88 2.88 0 0 1-5.76 0V18.9a6.79 6.79 0 0 0 5.76 0Zm.8 5.72a5.65 5.65 0 0 1-9.2-3.06L7 21.11a4.06 4.06 0 0 0 7.96 0l1.54.46a5.66 5.66 0 0 1-1.84 3.06Z"/>
  <path d="M12.74 14.34a.59.59 0 0 0-.82.1c-.25.3-.58.47-.93.47a1.2 1.2 0 0 1-.94-.48.59.59 0 0 0-.9.74 2.33 2.33 0 0 0 3.68 0 .59.59 0 0 0-.09-.83Zm-4.53-3.59a.59.59 0 0 0-.58.58v.7a.59.59 0 0 0 1.17 0v-.7a.59.59 0 0 0-.59-.58Zm5.55 0a.59.59 0 0 0-.59.58v.7a.59.59 0 0 0 1.18 0v-.7a.59.59 0 0 0-.59-.58Zm17.7 7.06a.59.59 0 0 0-.82.09c-.25.3-.58.47-.93.47a1.2 1.2 0 0 1-.93-.47.59.59 0 0 0-.91.74c.46.57 1.14.9 1.84.9.7 0 1.37-.33 1.84-.9a.59.59 0 0 0-.09-.83Zm-4.53-3.6a.59.59 0 0 0-.58.59v.7a.59.59 0 1 0 1.17 0v-.7a.59.59 0 0 0-.59-.59Zm5.55 0a.59.59 0 0 0-.59.59v.7a.59.59 0 0 0 1.18 0v-.7a.59.59 0 0 0-.59-.59Z"/>
  <path d="m38.32 26.21-4.75-1.9a.8.8 0 0 1-.12-.06 29.1 29.1 0 0 0 4.8-1.28c.24-.1.4-.35.36-.62 0-.05-.69-5.56-.69-10.32a8.22 8.22 0 0 0-16.43 0c0 4.76-.68 10.27-.68 10.32-.04.27.11.52.35.62.07.03 1.58.64 4.8 1.28a.81.81 0 0 1-.12.06l-4.75 1.9a2.65 2.65 0 0 0-1.68 2.48v1.47h-1.6v-2.74l1.33-2.65a.59.59 0 1 0-1.05-.52l-1.39 2.77a.59.59 0 0 0-.06.26v11.1a.59.59 0 0 0 1.17 0v-7.05h1.6v.8a.59.59 0 0 0 .59.59h.1v5.65a.59.59 0 0 0 1.18 0v-5.65h1.6v5.65a.59.59 0 1 0 1.17 0v-7.62a.59.59 0 1 0-1.17 0v.8h-2.3v-2.86c0-.62.37-1.16.95-1.39l2.33-.93a6.13 6.13 0 0 0 11.7 0l2.33.93c.57.23.94.77.94 1.39v2.86h-2.3v-.8a.59.59 0 1 0-1.17 0v7.62a.59.59 0 0 0 1.17 0v-5.65h1.6v5.65a.59.59 0 1 0 1.18 0v-5.65h.1c.33 0 .59-.26.59-.59V28.7c0-1.1-.66-2.07-1.68-2.48ZM22.67 12.03a7.05 7.05 0 0 1 14.08 0c0 4.02.48 8.56.64 10-.65.22-2.07.66-4.32 1.1v-1a6.77 6.77 0 0 0 3.46-5.94c0-3.42-2.47-3.9-4.86-4.38-1.53-.3-3.1-.62-4.37-1.63a.59.59 0 0 0-.89.2s-.33.65-.89 1.28c-.47.53-1.2 1.17-2.05 1.17-.3 0-.57.06-.81.17v-.97Zm7.04 9.81a5.68 5.68 0 0 1-5.65-5.65.59.59 0 0 0-.6-.59.8.8 0 0 1 0-1.6c1.78 0 3.07-1.61 3.65-2.51 1.37.88 2.93 1.19 4.33 1.47 2.58.5 3.92.88 3.92 3.23a5.7 5.7 0 0 1-2.1 4.4 5.6 5.6 0 0 1-3.55 1.25Zm-7.69.2c.1-.92.33-3.05.49-5.52.12.07.25.13.39.17a6.83 6.83 0 0 0 3.45 5.44v1a34.81 34.81 0 0 1-4.33-1.1Zm7.69 7.43a4.96 4.96 0 0 1-4.76-3.54l1.33-.53a1.96 1.96 0 0 0 1.24-1.83v-.92a6.83 6.83 0 0 0 4.37 0v.92a2 2 0 0 0 1.24 1.83l1.33.53a4.96 4.96 0 0 1-4.75 3.54Z"/>
</svg>
