<svg xmlns="http://www.w3.org/2000/svg" viewBox="0 0 20 20">
    <path d="M17.79 2.54h-1.17a.3.3 0 1 0 0 .6h1.17c.86 0 1.57.68 1.61 1.54l-7.35 6.12a3.2 3.2 0 0 1-4.1 0L.6 4.68c.04-.86.75-1.55 1.61-1.55h13.22a.3.3 0 1 0 0-.6H2.2A2.24 2.24 0 0 0 0 4.76v7.09a.3.3 0 0 0 .6 0v-6.4l6.97 5.8a3.8 3.8 0 0 0 4.86 0l6.98-5.8v9.89c0 .86-.7 1.56-1.57 1.56H2.16c-.86 0-1.57-.7-1.57-1.56v-2.31a.3.3 0 1 0-.59 0v2.3c0 1.2.97 2.17 2.16 2.17h15.68c1.2 0 2.16-.97 2.16-2.16V4.75c0-1.22-1-2.21-2.21-2.21Z"/>
    <path d="M17.7 15.92a.3.3 0 0 0 .42-.03.3.3 0 0 0-.04-.42l-4.73-3.95a.3.3 0 1 0-.38.46l4.73 3.94ZM2.1 16a.3.3 0 0 0 .2-.08l4.73-3.94a.3.3 0 1 0-.38-.46l-4.73 3.95a.3.3 0 0 0 .19.52Z"/>
</svg>
