<svg xmlns="http://www.w3.org/2000/svg" viewBox="0 0 30 30">
  <path d="M18.46 21.2h-1.64a.44.44 0 0 0 0 .87h1.64a.44.44 0 1 0 0-.88Z"/>
  <path d="m28.14 16.49-2.4-.92-1.21-1.23a.44.44 0 0 0-.29-.12v-.97c.58-.62.99-1.4 1.15-2.27.1 0 .21 0 .31-.02a1.3 1.3 0 0 0 1.01-1.3v-.31c0-.37-.15-.7-.39-.94.4-2.1.07-3.83-.92-4.98-.97-1.11-2.52-1.64-4.5-1.54-1.82.1-3 .94-3.37 1.25-.2.02-.55.1-.9.3-.5.3-1.08.91-1.08 2.18 0 1.1.18 2.03.3 2.55-.42.21-.7.66-.7 1.18v.32c0 .63.42 1.17 1 1.29.1.02.2.03.31.02.16.88.57 1.65 1.15 2.27v.97c-.1 0-.2.05-.28.12l-1.22 1.22-2.4.93c-.2.08-.4.18-.58.3a.44.44 0 0 0 .49.73c.13-.08.27-.16.41-.21l2.22-.86 1.7 2.55a1.26 1.26 0 0 0 1.67.4l-.37 8.26c0 .24.18.45.42.46h.02c.24 0 .43-.18.44-.42l.34-7.67h.91l.34 7.67a.44.44 0 0 0 .88-.04l-.37-8.26a1.25 1.25 0 0 0 1.67-.4l1.7-2.55 2.22.86c.31.12.58.31.8.55l-1.53 1.52a2.89 2.89 0 0 0-.85 2.05v6.25a.44.44 0 1 0 .88 0v-6.25c0-.54.21-1.05.6-1.43l1.33-1.33c.05.2.08.4.07.61l-.34 8.38a.44.44 0 0 0 .88.04l.34-8.38a2.9 2.9 0 0 0-1.86-2.83ZM17.32 10.8a.86.86 0 0 0-.89-.7h-.1c-.18-.04-.3-.22-.3-.43v-.32c0-.2.13-.39.3-.42a.4.4 0 0 1 .38.15.62.62 0 0 0 .84.13c.27-.2.52-.43.72-.7a.44.44 0 0 0-.7-.53c-.1.14-.22.26-.35.37-.14-.12-.3-.2-.47-.25a10.1 10.1 0 0 1-.32-2.48c0-.67.21-1.15.62-1.4.32-.2.66-.22.66-.22.1 0 .22-.04.3-.12a4.95 4.95 0 0 1 2.94-1.11c1.7-.1 3 .34 3.78 1.24.79.9 1.05 2.3.76 4.04-.11 0-.24 0-.37.03l-.41-1a.44.44 0 0 0-.52-.25c-.04.01-4.1 1.04-5.8-1.08a.44.44 0 0 0-.69.55c1.74 2.16 5.19 1.7 6.34 1.46l.32.77c.13.33.49.51.83.43a.95.95 0 0 1 .33-.02c.18.03.31.2.31.4v.33c0 .2-.13.4-.3.43h-.1a.86.86 0 0 0-.9.7 3.67 3.67 0 0 1-7.21 0Zm1.95 7.77a.38.38 0 0 1-.3.11.38.38 0 0 1-.29-.17l-1.71-2.57.69-.68 2.62 2.3-1.01 1Zm1.24.58.03-.6.39-.4.39.4.02.6h-.83Zm.42-2.2-2.44-2.13v-.85a4.53 4.53 0 0 0 4.88 0v.85l-2.44 2.13Zm2.24 1.56a.38.38 0 0 1-.28.17c-.07 0-.2 0-.3-.11l-1.02-1.02 2.63-2.3.68.7-1.7 2.56Z"/>
  <path d="m13.94 18.8-2.15-.95-1.17-1.17a.44.44 0 0 0-.28-.13v-.69c1-.66 1.73-1.7 1.97-2.95.11 0 .23 0 .34-.04.57-.13.97-.67.97-1.28v-.32c0-.44-.22-.84-.56-1.08a5.12 5.12 0 0 0-2.32-5.56 2.85 2.85 0 0 0-2.9-2.75 2.85 2.85 0 0 0-2.9 2.75 5.12 5.12 0 0 0-2.32 5.56c-.34.23-.56.64-.56 1.09v.31a1.3 1.3 0 0 0 1.31 1.32 4.5 4.5 0 0 0 1.98 2.95v.7c-.1 0-.2.04-.29.12L3.9 17.85l-2.15.94A2.94 2.94 0 0 0 0 21.58l.26 6.12a.44.44 0 0 0 .88-.04l-.26-6.12c-.02-.4.09-.78.28-1.1l1.15 1.38c.37.44.57.99.57 1.56v4.3a.44.44 0 0 0 .88 0v-4.3c0-.78-.28-1.53-.77-2.12l-1.23-1.48c.1-.07.22-.13.34-.18l1.87-.82 1.32 2.15a.85.85 0 0 0 1.27.2l.84-.72v7.27a.44.44 0 0 0 .88 0v-7.27l.84.72a.85.85 0 0 0 1.27-.2l1.32-2.15 1.88.82a2 2 0 0 1 .33.18l-1.23 1.48c-.5.59-.77 1.34-.77 2.12v4.3a.44.44 0 0 0 .88 0v-4.3c0-.57.2-1.12.57-1.56l1.15-1.39c.2.33.3.72.28 1.11l-.26 6.12a.44.44 0 1 0 .88.04l.26-6.12a2.92 2.92 0 0 0-1.74-2.79ZM7.84 2.75c.94 0 1.72.6 1.96 1.4a5.53 5.53 0 0 0-3.92 0c.24-.8 1.03-1.4 1.96-1.4Zm-3.6 9.97a.86.86 0 0 0-.9-.7l-.11-.01c-.17-.04-.3-.22-.3-.43v-.31c0-.2.14-.39.31-.42.15-.03.3.03.38.14a.62.62 0 0 0 .84.14c.27-.2.51-.43.71-.7a.44.44 0 1 0-.7-.52c-.1.13-.21.25-.33.36a1.26 1.26 0 0 0-.67-.3 4.1 4.1 0 0 1-.12-1 4.4 4.4 0 0 1 4.49-4.3 4.4 4.4 0 0 1 4.5 4.3c0 .33-.05.67-.13 1-.12.01-.24.03-.34.06l-.33-.27a.84.84 0 0 0-.6-.2c-.64.04-3.95.13-5.64-1.9a.44.44 0 0 0-.68.56c.84 1 2.07 1.68 3.65 2.02 1.22.25 2.3.23 2.72.2l.51.43c.14.11.34.13.5.04a.97.97 0 0 1 .43-.06c.18.04.32.21.32.41v.32c0 .2-.13.39-.3.43a.38.38 0 0 1-.11 0 .86.86 0 0 0-.9.7 3.67 3.67 0 0 1-7.2 0Zm1.78 7.7L4.7 18.3l.67-.68 1.82 1.82-1.17 1Zm1.82-1.6-1.62-1.6v-.92a4.54 4.54 0 0 0 3.24 0v.91l-1.62 1.62Zm1.82 1.6-1.17-1 1.82-1.82.67.68-1.32 2.15Z"/>
  <path d="M6.2 23.13H4.96a.44.44 0 1 0 0 .88H6.2a.44.44 0 0 0 0-.88Z"/>
</svg>
