<svg xmlns="http://www.w3.org/2000/svg" viewBox="0 0 40 40">
  <path d="M39.41 36.34h-2.25a3.25 3.25 0 0 0 0-3.82c.5-.12.98-.34 1.4-.68a1 1 0 0 0 .02-1.55l-5.43-4.64a2.9 2.9 0 0 1-.86-1.28l-1.27-3.78-1.14-3.41a5.11 5.11 0 0 0-3.31-3.25l-3.93-1.23c1.07-.75 1.77-2 1.77-3.4V6.58a4.16 4.16 0 0 0-8.31 0V9.3a4.2 4.2 0 0 0 1.62 3.3l-.3.08-3.99 1.25a5.11 5.11 0 0 0-3.3 3.25l-2.42 7.2c-.16.49-.46.93-.86 1.27L1.42 30.3a1 1 0 0 0 .03 1.55c.43.35.93.58 1.45.69a3.62 3.62 0 0 0 .24 3.81H.6a.59.59 0 1 0 0 1.18h38.8a.59.59 0 0 0 0-1.18ZM26.08 22.67l2.07 5.15a4.08 4.08 0 0 0 1.55 1.54l.68.4-4.3-1.32v-5.77Zm6.31 3.88 5.27 4.5a2.3 2.3 0 0 1-2.37.1l-5.02-2.8a2.9 2.9 0 0 1-1.05-1l-1.85-4.6 2.74-1.2 1.07 3.2c.23.7.65 1.32 1.21 1.8ZM17.27 9.3V6.58a2.99 2.99 0 0 1 5.96 0V9.3a2.98 2.98 0 0 1-5.96 0Zm-3.49 5.75 3.99-1.25c1.46-.46 3-.46 4.46 0l3.99 1.25a3.94 3.94 0 0 1 2.55 2.5l.97 2.9-2.8 1.21-.9-2.23a.59.59 0 0 0-1.13.22v8.63h-9.82v-8.63a.59.59 0 0 0-1.13-.22l-.78 1.93-2.76-1.38.81-2.43a3.94 3.94 0 0 1 2.55-2.5Zm-6.17 11.5c.56-.48.98-1.1 1.21-1.8l1.22-3.65 2.7 1.35-.42 1.06a.59.59 0 0 0 1.09.44l.51-1.27v5.75L9.7 29.7l.6-.33a4.08 4.08 0 0 0 1.55-1.55l.44-1.09a.59.59 0 1 0-1.09-.43l-.42 1.04a2.9 2.9 0 0 1-1.05 1l-5.02 2.8c-.75.42-1.66.38-2.37-.1l5.27-4.5Zm-2.01 9.8c-.85 0-1.51-.45-1.8-1.23a2.45 2.45 0 0 1 .55-2.58l10.24-3.08h10.82l9.72 2.97a2.08 2.08 0 0 1 .68 3.64l-.36.27H23.08a2.98 2.98 0 0 0-.69-1.44l1.17-.06a.59.59 0 1 0-.07-1.17l-3.17.17a5.5 5.5 0 0 0-.42-.06l-9.04-.94a.58.58 0 1 0-.12 1.16l9.04.95.38.05c1.18.24 1.59.87 1.73 1.34H5.6Z"/>
  <path d="M26.56 34.67h.04l3.95-.22a.59.59 0 0 0-.07-1.17l-3.95.22a.59.59 0 0 0 .03 1.17Z"/>
</svg>
