<svg xmlns="http://www.w3.org/2000/svg" viewBox="0 0 40 40">
  <path d="M12.34 14.52a.59.59 0 0 0-.83.09c-.24.3-.55.45-.88.45-.34 0-.65-.16-.89-.45a.59.59 0 0 0-.9.74c.45.56 1.1.88 1.79.88.68 0 1.33-.32 1.8-.88a.59.59 0 0 0-.1-.83Zm-4.39-3.47a.59.59 0 0 0-.59.58v.67a.59.59 0 0 0 1.18 0v-.67a.59.59 0 0 0-.59-.58Zm5.35 0a.59.59 0 0 0-.58.58v.67a.59.59 0 1 0 1.17 0v-.67a.59.59 0 0 0-.58-.58Zm18.45 6.82a.59.59 0 0 0-.82.09c-.24.29-.55.45-.89.45-.33 0-.65-.16-.88-.45a.59.59 0 0 0-.91.74c.45.56 1.1.88 1.8.88.68 0 1.33-.32 1.79-.88a.59.59 0 0 0-.09-.83Zm-4.39-3.47a.59.59 0 0 0-.58.58v.67a.59.59 0 1 0 1.17 0v-.67a.59.59 0 0 0-.59-.59Zm5.36 0a.59.59 0 0 0-.59.58v.67a.59.59 0 1 0 1.18 0v-.67a.59.59 0 0 0-.59-.59Z"/>
  <path d="m38.37 25.98-4.6-1.84-.06-.03c3.17-.72 4.67-1.93 4.74-1.98a.59.59 0 0 0 .2-.54c0-.05-.66-4.7-.66-9.29a7.96 7.96 0 0 0-15.9 0 67 67 0 0 1-.14 4.06l-1.28.64-3.76-1.88h-.03c.18-.53.3-1.08.34-1.65a1.93 1.93 0 0 0 .69-3.3v-3.9c0-1.07-.55-2.08-1.44-2.68a2.58 2.58 0 0 0-2.5-1.92H8.62a5.28 5.28 0 0 0-5.27 5.28v3.22a1.92 1.92 0 0 0 .69 3.3 6.6 6.6 0 0 0 2.65 4.8v1.63l-4.84 1.45A2.58 2.58 0 0 0 0 23.84v6.54c0 .32.26.58.59.58h.08v6.78a.59.59 0 0 0 1.17 0v-6.78h2.18v6.78a.59.59 0 0 0 1.17 0v-10.1c0-.52-.15-1.01-.44-1.44l-1-1.5a.59.59 0 1 0-.97.65l1 1.5c.15.23.24.5.24.79v2.15H1.17v-5.95c0-.64.4-1.18 1.02-1.36l2-.6a6.64 6.64 0 0 0 9.57 4.28c.35.47.92.79 1.55.79h.09v.08a5.27 5.27 0 0 0 2.68 4.59v.95c0 .04-.03.07-.06.08l-2.19.73a2.6 2.6 0 0 0-1.77 2.46v1.9a.59.59 0 0 0 1.17 0v-1.9c0-.61.4-1.15.97-1.35l.65-.21a4.6 4.6 0 0 0 7.64 0l.65.21c.58.2.97.74.97 1.35v1.9a.59.59 0 1 0 1.17 0v-1.9a2.6 2.6 0 0 0-1.77-2.46l-2.19-.73a.08.08 0 0 1-.06-.08v-.95a5.3 5.3 0 0 0 2.48-3.17 5.95 5.95 0 0 0 9.96-2.28l2.23.9c.55.22.9.73.9 1.32v2.74h-2.18v-.75a.59.59 0 1 0-1.17 0v7.36a.59.59 0 0 0 1.17 0V32.3h1.5v5.44a.59.59 0 1 0 1.18 0V32.3h.08a.59.59 0 0 0 .59-.58v-3.33c0-1.07-.64-2.01-1.63-2.41ZM23.27 12.3a6.79 6.79 0 0 1 13.55 0c0 3.94.47 7.91.63 9.1-.53.34-1.87 1.1-4.14 1.6v-.93a6.55 6.55 0 0 0 3.34-5.75c0-3.31-2.4-3.79-4.7-4.25-1.48-.3-3-.6-4.22-1.56a.59.59 0 0 0-.95.45c0 .02-.03 1.56-2.24 2.11a.59.59 0 1 0 .29 1.14c1.85-.46 2.6-1.5 2.9-2.28 1.28.75 2.7 1.04 3.98 1.3 2.48.48 3.77.84 3.77 3.09a5.47 5.47 0 0 1-2.02 4.23 5.38 5.38 0 0 1-6.58.2 6.62 6.62 0 0 0-1.6-2.48v-2.62a.59.59 0 0 0-.86-.53l-1.26.64c.07-1.22.1-2.38.1-3.46Zm.83 4.3v2.12l-2.12-1.06 2.12-1.06Zm-6.86 0 2.12 1.06-2.12 1.06V16.6ZM14.06 23v.56c-.42.36-.67.9-.67 1.45a5.46 5.46 0 0 1-8.07-3.49l1.45-.43a3.94 3.94 0 0 0 7.35 1.05 6.1 6.1 0 0 0-.06.86Zm-6.2-2.68v-1.35a6.57 6.57 0 0 0 5.53 0v1.35a2.76 2.76 0 0 1-5.52.01Zm2.77-1.92c-3 0-5.44-2.44-5.44-5.44a.59.59 0 0 0-.59-.59.75.75 0 0 1 0-1.5h1.34a.6.6 0 0 0 .56-.4l.54-1.62c1.34-.03 5.52-.21 7.87-1.39a.59.59 0 1 0-.53-1.05C11.86 7.68 6.66 7.7 6.61 7.7a.59.59 0 0 0-.55.4l-.54 1.6h-1V6.96a4.1 4.1 0 0 1 4.1-4.1h5.36c.7 0 1.28.5 1.4 1.2.02.17.13.33.28.41a2.1 2.1 0 0 1 1.08 1.82V9.7h-.76a.59.59 0 1 0 0 1.17h.67a.75.75 0 0 1 0 1.5.59.59 0 0 0-.58.6 5.44 5.44 0 0 1-5.44 5.43Zm3.93 1.92v-2.05c.58-.43 1.1-.96 1.5-1.56v1.55a6.62 6.62 0 0 0-1.5 2.23v-.17Zm8.76 13.56a3.43 3.43 0 0 1-5.3 0l.37-.13c.51-.17.86-.65.86-1.19v-.47a5.26 5.26 0 0 0 2.84 0v.47c0 .54.35 1.02.86 1.2l.37.12Zm2.04-8.12a.59.59 0 0 0-.59.59v.68a4.1 4.1 0 0 1-8.2 0v-.67a.59.59 0 0 0-.59-.59h-.67a.75.75 0 0 1-.75-.75c0-.27.14-.5.38-.65l.14-.11c1.45-.04 6.14-.31 9.23-2.08a.59.59 0 0 0-.58-1.02c-2.7 1.55-6.96 1.86-8.5 1.92v-.07c0-1.09.33-2.14.93-3.03a.58.58 0 0 0 .75.2l3.76-1.87 3.75 1.88a.59.59 0 0 0 .76-.21c.6.89.93 1.94.93 3.03v.86c0 .2.11.4.29.5a.75.75 0 0 1-.37 1.4h-.67Zm4.68 3.35a4.78 4.78 0 0 1-4-2.17 1.93 1.93 0 0 0 1.24-3.38V23c0-.23-.01-.47-.04-.7a6.57 6.57 0 0 0 4.9.28v.86c0 .79.47 1.49 1.2 1.78l1.27.5a4.77 4.77 0 0 1-4.57 3.4Z"/>
  <path d="M22.38 27.91a.59.59 0 0 0-.83.09c-.23.3-.55.45-.88.45-.33 0-.65-.16-.88-.45a.59.59 0 0 0-.91.74c.45.56 1.1.88 1.79.88.68 0 1.34-.32 1.8-.88a.59.59 0 0 0-.1-.83Zm-3.71-1.63a.59.59 0 1 0 0-1.17.59.59 0 0 0 0 1.17Zm3.99 0a.59.59 0 1 0 0-1.17.59.59 0 0 0 0 1.17Z"/>
</svg>
