<svg xmlns="http://www.w3.org/2000/svg" viewBox="0 0 40 40">
    <path d="M24.84 3.82a.59.59 0 0 0-.79.87c.51.46.98.95 1.41 1.47l-1.7 5.23-3.42 1.25-4.87-3.53V5.35l4.44-3.23c.77.3 1.52.68 2.23 1.13a.59.59 0 1 0 .62-1 14.84 14.84 0 0 0-15.25-.3c-2.16 1.24-4 3.01-5.3 5.13a.59.59 0 0 0 1 .62c.07-.13.15-.26.24-.38l1.4 4.3-3.66 2.66c.06-1.53.38-3.02.94-4.44a.59.59 0 1 0-1.09-.43 14.9 14.9 0 0 0 13.84 20.36 14.9 14.9 0 0 0 9.96-25.95Zm1.6 18.43-5.5-.01-2.1-2.75 1.87-5.74 3.43-1.25 4.43 3.22c-.15 2.4-.9 4.62-2.13 6.53Zm-.12-14.93a13.74 13.74 0 0 1 2.26 6.96l-3.66-2.66 1.4-4.3Zm-8.55 11.7H12l-1.78-5.5 4.67-3.39 4.68 3.4-1.79 5.49Zm.77-17.35-3.66 2.66-3.66-2.66a13.76 13.76 0 0 1 7.32 0ZM4.3 6.17a13.8 13.8 0 0 1 5.56-4.05l4.44 3.23v3.76l-4.87 3.54L6 11.39 4.3 6.16Zm1.33 6.33 3.42 1.25 1.87 5.74-2.1 2.76h-5.5a13.62 13.62 0 0 1-2.12-6.53l4.43-3.22ZM4.16 23.42h4.52l1.4 4.3a13.77 13.77 0 0 1-5.92-4.3Zm15.32 4.38.35-1.1a.59.59 0 0 0-1.11-.36l-.6 1.87a13.7 13.7 0 0 1-6.67-.05l-1.7-5.21 2.1-2.76h6.06l1.97 2.59-.39 1.18a.59.59 0 0 0 1.12.36l.3-.91h4.7a13.77 13.77 0 0 1-6.13 4.4Zm-8.18 2.51a.59.59 0 0 0-.82.83l5.23 5.23a.58.58 0 0 0 .83 0 .59.59 0 0 0 0-.83l-5.23-5.23Zm8.05.11a.59.59 0 1 0-.83.82l5.08 5.08a.58.58 0 1 0 .83-.83l-5.08-5.07Zm17.88-4.58a.58.58 0 0 0 .41-1l-5.08-5.08a.59.59 0 0 0-.83.83l5.08 5.08c.12.12.27.17.42.17Zm.28-7.58a.58.58 0 0 0 .83 0 .59.59 0 0 0 0-.83l-6.48-6.47a.59.59 0 0 0-.83.82l6.48 6.48Zm-.45 13.89a.58.58 0 0 0 .83 0 .59.59 0 0 0 0-.82l-3.1-3.1a.59.59 0 0 0-.83.83l3.1 3.1Zm-9.88.26a.59.59 0 0 0-.83.83l3.1 3.1a.58.58 0 1 0 .82-.83l-3.1-3.1ZM39.83 39 27.74 26.91a.59.59 0 1 0-.83.83L39 39.83a.58.58 0 1 0 .83-.83Z"/>
  </g>
</svg>
