<svg xmlns="http://www.w3.org/2000/svg" viewBox="0 0 30 30">
    <path d="M29.01 10.9a1.97 1.97 0 0 0-2.88 1.3l-1.22 5.74c-.1.48-.39.9-.79 1.19L21 21.33l.54-2.17a2.17 2.17 0 0 0-4.16-1.23l-1.94 5.63-.08.3c-.15.73.05 1.5.53 2.06L15 27.54l-.88-1.62a2.42 2.42 0 0 0 .45-2.36l-1.94-5.63a2.16 2.16 0 0 0-2.67-1.38 2.17 2.17 0 0 0-1.5 2.61l.55 2.17-3.13-2.2c-.4-.29-.69-.71-.79-1.2L3.87 12.2A1.97 1.97 0 0 0 1 10.9a1.96 1.96 0 0 0-1 1.91v.01l.86 7.8c.08.75.47 1.45 1.07 1.92l2.85 2.23a.44.44 0 1 0 .54-.7L2.5 21.84c-.41-.32-.68-.8-.74-1.32L.9 12.73a1.07 1.07 0 0 1 2.1-.36l1.22 5.74c.15.7.56 1.32 1.15 1.73l4.1 2.9a.44.44 0 0 0 .7-.48l-.84-3.32a1.28 1.28 0 0 1 2.46-.73l1.94 5.63.05.19c.11.54-.08 1.1-.5 1.47a.44.44 0 0 0-.1.55l1.62 2.97h-4.78l-.86-1.9a.44.44 0 0 0-.13-.16l-2.3-1.8a.44.44 0 1 0-.54.7l2.2 1.73.94 2.06c.07.16.23.26.4.26h10.53c.18 0 .34-.1.4-.26l.94-2.06 6.46-5.06c.6-.46.99-1.17 1.07-1.92l.86-7.78v-.02c.08-.78-.3-1.53-.98-1.92Zm.1 1.8v.02l-.86 7.8c-.06.52-.33 1-.74 1.32l-6.54 5.13a.4.4 0 0 0-.13.16l-.86 1.9H15.8l-.3-.56 1.3-2.41a.44.44 0 0 0-.1-.55 1.54 1.54 0 0 1-.44-1.66l1.94-5.63.1-.22a1.28 1.28 0 0 1 2.36.95l-.83 3.32a.44.44 0 0 0 .68.47l4.11-2.89c.59-.41 1-1.03 1.15-1.73L27 12.38a1.08 1.08 0 0 1 1.57-.7c.37.2.58.6.54 1.03Z"/>
    <path d="M14.73 16.88a.44.44 0 0 0 .54 0 51.3 51.3 0 0 0 6.94-6.54.44.44 0 1 0-.68-.57 49.13 49.13 0 0 1-6.53 6.2 55.68 55.68 0 0 1-4.46-3.95C7.51 8.99 5.91 6.5 5.91 4.83c0-.9.3-1.74.9-2.43A4.24 4.24 0 0 1 9 1.07c2.64-.64 4.62 1.15 5.6 3.05a.44.44 0 0 0 .78 0C16.9 1.23 19.26.65 21 1.07c.87.2 1.65.68 2.2 1.33.6.69.9 1.53.9 2.43 0 .94-.5 2.14-1.5 3.56a.44.44 0 0 0 .73.51c1.1-1.57 1.66-2.94 1.66-4.07 0-1.12-.38-2.16-1.1-3A5.13 5.13 0 0 0 21.2.2a5.34 5.34 0 0 0-3.55.37A6.53 6.53 0 0 0 15 3.02 6.53 6.53 0 0 0 12.35.58 5.33 5.33 0 0 0 8.8.21c-1.04.25-2 .82-2.67 1.61a4.56 4.56 0 0 0-1.11 3.01c0 1.95 1.65 4.58 4.9 7.81a55.96 55.96 0 0 0 4.81 4.24Z"/>
</svg>
