<svg xmlns="http://www.w3.org/2000/svg" viewBox="0 0 24 24">
    <path d="M15.2 4.8a2.4 2.4 0 1 0 0-4.8 2.4 2.4 0 0 0 0 4.8Zm0-4a1.6 1.6 0 1 1 0 3.2 1.6 1.6 0 0 1 0-3.2ZM.8 24h22.4a.8.8 0 0 0 .72-1.16l-.4-.8a.8.8 0 0 0-.72-.44h-3.6V11.13a1.2 1.2 0 0 0 0-2.26V6.8a.4.4 0 0 0-.8 0v2h-1.17a.4.4 0 0 1-.34-.18L15 5.8a2.24 2.24 0 0 0-2.78-.8 1.2 1.2 0 0 0-.79-.96l-2.27-.78A1.2 1.2 0 0 0 7.63 4l-.39 1.13a.4.4 0 0 0-.26.76L6.45 7.4a.4.4 0 0 0-.26.75c-.38 1.12-.51 1.34-.44 1.75a1.2 1.2 0 0 0-.07 2.31c2.71.94 2.85 1.07 3.35.91l-.36 2.54c-.04.27.13.06-2.91 4.17a1.6 1.6 0 0 0-.11 1.78H1.2a.8.8 0 0 0-.72.44l-.4.8A.8.8 0 0 0 .8 24Zm15.36-2.4c.16-.26.24-.56.24-.87v-3.97a2.4 2.4 0 0 0-.6-1.6l-2.4-2.68a.4.4 0 0 1-.07-.4l.73-2.19.34.47a2 2 0 0 0 1.62.84h2.38v10.4h-2.24Zm-3.6-15.9a1.45 1.45 0 0 1 1.78.53l1.89 2.84c.22.33.6.53 1 .53h1.57a.4.4 0 0 1 0 .8h-2.78a1.2 1.2 0 0 1-.97-.5l-1.52-2.13a.4.4 0 1 0-.65.46l.6.86-.91 2.74c-.14.4-.05.86.24 1.18l2.39 2.69c.26.3.4.67.4 1.06v3.97c.01.44-.3.81-.74.87a.8.8 0 0 1-.86-.8v-2.52a2.4 2.4 0 0 0-.52-1.49l-3.07-3.43a2 2 0 0 1-.33-1.79c1.5-4.74 1.52-4.48 1.53-4.52.18-.54.3-1.06.95-1.35Zm-2.35 3-3-1.04.52-1.51 2.99 1.04-.51 1.51ZM8.39 4.25a.4.4 0 0 1 .5-.25l2.28.79c.2.07.31.3.24.5l-.2.59c-.09.15-.16.32-.22.5-.02.06.32.15-3-1l.4-1.13Zm.15 8.1-2.6-.9a.43.43 0 0 1-.3-.49.4.4 0 0 1 .52-.29c.41.15.43.17.56.15 1.23.5 1.2.5 1.3.5a.4.4 0 0 0 .15-.76c-1.8-.75-1.42-.6-1.52-.62a.38.38 0 0 1-.1-.4l.4-1.13 3 1.04-.9 2.65a.4.4 0 0 1-.5.25ZM6.4 20.3l2.77-3.82c.32-.43.29-.64.58-2.69.1.13-.21-.21 1.53 1.74l-.2 1.18c-.05.27.12 0-3.38 4.52a.8.8 0 0 1-1.47-.33.82.82 0 0 1 .17-.6Zm5.16-2.76c.25-.37.39-.8.4-1.25l.9 1.01c.22.28.34.63.34.98v2.52c0 .28.08.56.22.8h-5l3.14-4.06ZM.8 23.2l.4-.8h21.6l.4.8H.8Z"/>
</svg>
