<svg xmlns="http://www.w3.org/2000/svg" viewBox="0 0 20 20">
    <path d="M12.3 13.38h-.4V8.3a.4.4 0 0 0-.38-.4H8.39a.4.4 0 0 0-.39.4v1.56c0 .22.17.39.4.39h.38v3.13H8.4a.4.4 0 0 0-.39.39v1.56c0 .21.17.39.4.39h3.9a.4.4 0 0 0 .39-.4v-1.55a.4.4 0 0 0-.4-.4Zm-.4 1.56H8.79v-.78h.4a.4.4 0 0 0 .38-.4v-3.9a.4.4 0 0 0-.39-.4h-.39V8.7h2.35v5.08c0 .21.17.39.39.39h.39v.78Zm-1.56-7.81a1.56 1.56 0 1 0 0-3.13 1.56 1.56 0 0 0 0 3.13Zm0-2.35a.78.78 0 1 1 0 1.57.78.78 0 0 1 0-1.57Z"/>
    <path d="M10 0C4.61 0 0 4.6 0 10c0 1.84.53 3.8 1.42 5.29l-1.4 4.2a.4.4 0 0 0 .5.49l4.2-1.4C6.18 19.48 8.15 20 10 20c5.4 0 10-4.6 10-10S15.4 0 10 0Zm0 19.22a9.77 9.77 0 0 1-5.03-1.4.4.4 0 0 0-.33-.04L1 19l1.2-3.63a.39.39 0 0 0-.03-.33A9.34 9.34 0 0 1 10 .78c5 0 9.22 4.22 9.22 9.22 0 5-4.22 9.22-9.22 9.22Z"/>
</svg>
