<svg xmlns="http://www.w3.org/2000/svg" viewBox="0 0 40 40">
    <path d="M36.49.54a.73.73 0 0 0-1.35-.15c0 .02-3.69 7.17-15 8.42-1.48.16-2.92.54-4.28 1.14a11.88 11.88 0 0 0-5.7 5.23 12.28 12.28 0 0 0-1.41 7.15c.2 1.8.8 3.54 1.76 5.08-2.01 1.44-8.39 6.43-8.96 11.79a.73.73 0 0 0 1.45.15c.52-4.78 6.5-9.42 8.37-10.76 2.24 2.75 5.6 4.3 9.2 4.56a15.6 15.6 0 0 0 7.07-1.21 16.24 16.24 0 0 0 6.24-4.64c4.31-5.22 6.37-14 2.61-26.76Zm-24.7 26.15a10.45 10.45 0 0 1-1.58-4.51 10.45 10.45 0 0 1 6.23-10.9c1.23-.54 2.53-.88 3.86-1.02 7.47-.8 11.86-4.13 14.13-6.54a30.83 30.83 0 0 1-6.72 11.8l-.44-4.45a.73.73 0 1 0-1.45.14l.57 5.73c-3.38 3.43-8.08 6.87-14.6 9.75Zm20.97-.32a14.78 14.78 0 0 1-5.68 4.24 14.07 14.07 0 0 1-6.43 1.08 11.5 11.5 0 0 1-7.99-3.8 54.8 54.8 0 0 0 6.94-3.7L26 25.4a.73.73 0 0 0 .25-1.43l-4.9-.93a42.43 42.43 0 0 0 6.4-5.4 32.9 32.9 0 0 0 8.13-13.72c2.48 10.6.58 17.97-3.12 22.45Z"/>
</svg>
