<svg xmlns="http://www.w3.org/2000/svg" viewBox="0 0 40 40">
    <path d="M39.9 12.28C36.23 4.16 27.8-.18 20 0c-3.3 0-9.6.7-14.8 5.38a.59.59 0 0 0 .78.87A19.45 19.45 0 0 1 13.84 2c-3.01 2.16-5.1 5.54-6.61 10.39H1.34c.8-1.56 1.73-2.98 2.78-4.22a.59.59 0 1 0-.9-.76A23.5 23.5 0 0 0 .1 12.28c-.3.57.17 1.31.81 1.29h18.51V27.6H8.78c-.7 0-1.26.56-1.26 1.26v.73h-.45c-.6 0-1.15.3-1.48.8l-4.47 6.89c-.26.39-.34.86-.25 1.32a1.76 1.76 0 0 0 3.2.59l3.95-6.09h11.4v6.3a.59.59 0 1 0 1.17 0v-6.3h4.4a.59.59 0 1 0 0-1.17H7.7c-.2 0-.38.1-.49.27L3.1 38.56a.6.6 0 0 1-.5.27c-.44.01-.75-.54-.49-.9l4.47-6.9c.11-.16.3-.26.5-.26h23.8c.21 0 .4-.11.5-.3l4.46-7.73c.4-.65 1.39-.11 1.02.59l-4.8 8.32c-.1.18-.3.29-.5.29h-3.83c-.78.03-.77 1.15 0 1.17h1.73l3.65 6.04c.31.52.89.85 1.5.85a1.77 1.77 0 0 0 1.5-2.67l-3.05-5.06 4.81-8.36c.24-.4.3-.88.18-1.33a1.77 1.77 0 0 0-3.34-.22l-.93-.5c-.6-.32-1.36-.1-1.7.49l-2.88 5.08a.35.35 0 0 1-.31.18h-8.3V13.57H39.1c.65.02 1.12-.72.82-1.3Zm-5 26.46a.59.59 0 0 1-.8-.2l-3.28-5.43c.36 0 .97.05 1.3-.1l2.98 4.93c.17.28.08.64-.2.8Zm-4.7-10.73 2.9-5.08a.09.09 0 0 1 .11-.04l.9.49-3.58 6.22H8.7v-.73c0-.05.04-.09.09-.09h20.1c.55 0 1.05-.3 1.32-.77Zm-16-24.82a9.85 9.85 0 0 1 3.5-1.71c-1.76 2.79-2.25 5.63-2.98 10.92H8.46c1.34-4.24 3.27-7.33 5.74-9.2Zm1.7 9.2c1.81-14.91 6.4-14.87 8.2 0h-8.2Zm9.38 0c-.73-5.28-1.22-8.12-2.98-10.91 4.81 1.41 7.36 5.3 9.24 10.92h-6.26Zm7.49 0C31.26 7.55 29.17 4.17 26.15 2a19.61 19.61 0 0 1 12.5 10.4h-5.88Z"/>
</svg>
