<svg xmlns="http://www.w3.org/2000/svg" viewBox="0 0 50 50">
    <path d="M48.54 24.16a4.94 4.94 0 0 0-3.52-1.45h-6.94v-6.08a9.68 9.68 0 0 0-6.12-8.98c-1.25-.49-2.82-.88-4.16-.6a4.96 4.96 0 1 0-3.12 3.38l-2.81 4.79-6.23 3.07a3.19 3.19 0 0 0-1.67 2.07h-1.45a3.98 3.98 0 0 0-2.96 1.32A4.94 4.94 0 1 0 1.54 27H.68a.68.68 0 0 0-.68.68v5.84a.68.68 0 0 0 .68.68H3.4v14.3a.68.68 0 0 0 .69.68h4.68a.68.68 0 0 0 .69-.68v-8.02h.14a2.77 2.77 0 0 0 2.54-1.64l2.01-4.63h9.68l-1.01 1.34a3.03 3.03 0 0 0-.86 2.1v8.4a3.1 3.1 0 0 0 2.93 3.13h.1a3.03 3.03 0 0 0 3.02-3.03v-7.23l2.18-2.16-.36 1.88c-.06.32-.07.65-.04.97l1.13 6.9a3.03 3.03 0 0 0 6-.72v-.03l-1.06-6.44 1-5.1h3.65V48.5a.68.68 0 0 0 .69.68h4.68a.68.68 0 0 0 .69-.68V34.2h2.73a.68.68 0 0 0 .69-.68v-5.84a4.95 4.95 0 0 0-1.46-3.52ZM23.03 9.36a3.58 3.58 0 1 1 0-7.16 3.58 3.58 0 0 1 0 7.15ZM16.24 19.5l6.42-3.16a.68.68 0 0 0 .28-.27l4.07-6.91a1.66 1.66 0 0 1 1.43-.82 8.29 8.29 0 0 1 8.27 8.28v6.08h-.06a9.24 9.24 0 0 0-5.19-2.3l.36-2.38a4.53 4.53 0 0 0-2.63-4.82.68.68 0 0 0-.87.28l-2.87 4.88c-.17.28-.4.5-.7.65l-7.13 3.51a1.66 1.66 0 0 1-2.24-.8c-.1-.2-.14-.44-.13-.67a1.79 1.79 0 0 1 1-1.55Zm14.23-1.7-.39 2.55h-4.96l.24-.11a3.1 3.1 0 0 0 1.27-1.19l2.53-4.3a3.16 3.16 0 0 1 1.31 3.06Zm-29.1 5.6a3.58 3.58 0 1 1 7.15 0 3.58 3.58 0 0 1-7.16 0Zm7.15 3.41V27h-.18l.18-.18Zm-4.44 6.01H1.36v-4.46h7.16v4.46H4.08Zm4.02 1.5-.97 2.22a2.88 2.88 0 0 0 .14 2.63c.21.34.5.63.83.85v7.77H4.78V34.2H8.1v.13ZM13.71 27a.68.68 0 0 0-.68.68v5.7l-2.13 4.9a1.39 1.39 0 0 1-1.58.8 1.4 1.4 0 0 1-.93-1.98l1.44-3.3v-.01a.68.68 0 0 0 .06-.27v-9.16a2.64 2.64 0 0 1 2.63-2.63h1.42a3 3 0 0 0 3.12 2.34c.4-.03.8-.13 1.17-.31l4.12-2.03h8.31c1.96.04 3.83.8 5.26 2.16.12.12.3.18.47.18h8.63A3.61 3.61 0 0 1 48.56 27H13.71Zm16.95 7.36-3.8 3.78a.68.68 0 0 0-.2.48v7.52a1.66 1.66 0 0 1-1.72 1.66 1.73 1.73 0 0 1-1.6-1.75v-8.4a1.66 1.66 0 0 1 .49-1.18.7.7 0 0 0 .06-.07l1.67-2.2h5.14l-.04.16Zm3.47 13.43a1.65 1.65 0 0 1-1.85-1.48l-1.12-6.9c-.02-.17-.01-.35.02-.52l.75-3.85.84-.84h2.7l-.96 4.96a.68.68 0 0 0 0 .25l1.07 6.55a1.66 1.66 0 0 1-1.45 1.83Zm11.08.01h-3.32V34.2h3.32v13.6Zm3.42-14.97H14.4v-4.46h34.23v4.46Z"/>
</svg>
