<svg xmlns="http://www.w3.org/2000/svg" viewBox="0 0 20 20">
    <path d="m14.87 8.03 1.17-.08a2.77 2.77 0 0 0 2.07-1.2l.93-1.37a5.52 5.52 0 0 0 .88-4.04A1.25 1.25 0 0 0 18.76.3a5.5 5.5 0 0 0-3.9 1.36l-1.24 1.1a2.78 2.78 0 0 0-.95 2.19l.06 1.18c.03.46-.14.91-.46 1.24l-9.7 9.99c-.26.27-.4.64-.37 1.05.01.44.22.88.54 1.17a1.67 1.67 0 0 0 1.23.4c.4-.03.75-.21 1-.5l8.72-10.85c.29-.35.72-.58 1.18-.6Zm-1.65.22L4.5 19.1a.82.82 0 0 1-.58.28c-.29.02-.58-.07-.78-.25-.2-.18-.33-.46-.35-.75a.82.82 0 0 1 .21-.6l9.7-9.99c.44-.45.67-1.07.63-1.7l-.06-1.17c-.03-.66.24-1.28.74-1.72l1.24-1.08A4.9 4.9 0 0 1 18.73.9a.64.64 0 0 1 .6.54 4.92 4.92 0 0 1-.79 3.6l-.92 1.37a2.2 2.2 0 0 1-1.62.94l-1.17.08c-.63.04-1.21.34-1.6.82Z"/>
    <path d="m19.45 17.28-6.5-5.93a.3.3 0 1 0-.41.44l6.5 5.94a.8.8 0 0 1 .25.59c0 .29-.1.57-.3.76-.2.2-.48.31-.76.3a.82.82 0 0 1-.6-.24l-5.8-6.38a.3.3 0 1 0-.44.4l5.8 6.38c.26.28.62.44 1.02.45h.04c.43 0 .86-.18 1.16-.48.3-.3.49-.76.48-1.2-.01-.4-.17-.77-.44-1.03ZM3.62 7.97a2.77 2.77 0 0 0 1.82.73h1.18c.46 0 .9.2 1.2.54l.53.57a.3.3 0 0 0 .42.02.3.3 0 0 0 .02-.42l-.52-.57a2.25 2.25 0 0 0-1.65-.73H5.44a2.18 2.18 0 0 1-1.4-.57L.63 3.47a.1.1 0 0 1 .15-.14l3.1 3.12c.31.3.81.3 1.12 0l.36-.37.65-.65.37-.36a.8.8 0 0 0 0-1.12L3.27.84a.1.1 0 0 1 0-.15.1.1 0 0 1 .14 0L7.47 4.1c.35.4.55.9.56 1.41V6.7c0 .63.27 1.23.73 1.65l.56.51a.3.3 0 1 0 .4-.44l-.55-.5a1.66 1.66 0 0 1-.54-1.22V5.5a2.78 2.78 0 0 0-.76-1.85L3.8.23a.7.7 0 0 0-.95.04.7.7 0 0 0 0 1l3.1 3.1c.08.08.08.2 0 .27l-.15.15-3.46-3.46a.3.3 0 0 0-.42.42l3.46 3.47-.23.22L1.7 1.98a.3.3 0 1 0-.42.42l3.46 3.47-.16.15a.19.19 0 0 1-.26 0L1.2 2.91a.7.7 0 0 0-1 0 .7.7 0 0 0-.04.95l3.42 4.08.03.03Z"/>
</svg>
