<svg xmlns="http://www.w3.org/2000/svg" viewBox="0 0 20 20">
  <path d="m18.27 16.87-1.43-2.39c-.66-1.1-1-2.36-1-3.64V8.75a5.84 5.84 0 0 0-11.67 0v2.09c0 1.28-.35 2.54-1.01 3.64l-1.43 2.39a.42.42 0 0 0 .35.63h15.84a.42.42 0 0 0 .35-.63Zm-15.45-.2 1.05-1.76A7.92 7.92 0 0 0 5 10.84V8.75a5 5 0 0 1 10 0v2.09a7.9 7.9 0 0 0 1.13 4.07l1.05 1.76H2.82Z"/>
  <path d="M10 0c-.92 0-1.67.75-1.67 1.67v1.66a.42.42 0 0 0 .84 0V1.67a.83.83 0 0 1 1.66 0v1.66a.42.42 0 0 0 .84 0V1.67C11.67.75 10.92 0 10 0Zm1.8 16.87a.42.42 0 1 0-.72.42A1.24 1.24 0 0 1 10 19.17a1.25 1.25 0 0 1-1.08-1.88.42.42 0 0 0-.72-.42 2.09 2.09 0 1 0 3.6 0Z"/>
</svg>
