<svg xmlns="http://www.w3.org/2000/svg" viewBox="0 0 30 30">
  <path d="M15 0A11.1 11.1 0 0 0 3.92 11.08a12.76 12.76 0 0 0 2.22 6.67l7.6 11.5c.3.48.77.75 1.26.75.5 0 .95-.27 1.26-.74l7.6-11.52a12.78 12.78 0 0 0 2.22-6.66A11.1 11.1 0 0 0 15 0Zm8.94 14.84c-.26.62-.8 1.62-1.17 2.19l-7.6 11.51c-.15.23-.2.23-.34 0l-7.6-11.51a11.58 11.58 0 0 1-2.01-5.95 9.79 9.79 0 0 1 19.56 0c0 1.75-.83 3.74-.84 3.76Z"/>
  <path d="M15 5.22a5.87 5.87 0 1 0 .01 11.74A5.87 5.87 0 0 0 15 5.22Zm0 10.43a4.57 4.57 0 1 1 .01-9.14 4.57 4.57 0 0 1-.01 9.14Z"/>
</svg>
