<svg xmlns="http://www.w3.org/2000/svg" viewBox="0 0 24 24">
    <path d="M5.63 15.75a1.5 1.5 0 1 0 0 3 1.5 1.5 0 0 0 0-3Zm0 2.25a.75.75 0 1 1 0-1.5.75.75 0 0 1 0 1.5Zm12.75-2.25a1.5 1.5 0 1 0 0 3 1.5 1.5 0 0 0 0-3Zm0 2.25a.75.75 0 1 1 0-1.5.75.75 0 0 1 0 1.5Zm-10.5-1.87h8.25v.75H7.88v-.75Zm0 1.5h8.25v.75H7.88v-.75Z"/>
    <path d="M22.5 7.5h-1.13V3.37A2.63 2.63 0 0 0 18.75.75H5.25a2.63 2.63 0 0 0-2.63 2.63v1.5h9v9H8.64l1.48-1.65v.9h.76V9.37h-.76v1.74l-2.49 2.77H3.38V5.62h-.75V7.5H1.5a.75.75 0 0 0-.75.75V12a.75.75 0 0 0 .75.75h1.13v6.38a1.13 1.13 0 0 0 .75 1.06v2.31a.75.75 0 0 0 .75.75h2.25a.75.75 0 0 0 .75-.75v-2.25h12.75v2.25h-2.25V21h-.75v1.5a.75.75 0 0 0 .75.75h2.25a.75.75 0 0 0 .75-.75v-2.31a1.13 1.13 0 0 0 .75-1.07v-6.37h1.12a.75.75 0 0 0 .75-.75V8.25a.75.75 0 0 0-.75-.75ZM3.37 3.37A1.88 1.88 0 0 1 5.25 1.5h13.5a1.88 1.88 0 0 1 1.88 1.88v.75H3.38v-.75Zm9 1.5h8.26v9h-4.26l-2.5-2.76V9.38h-.74v3.74h.74v-.9l1.49 1.65h-2.98v-9ZM1.5 12V8.25h1.13V12H1.5Zm4.88 10.5H4.13v-2.25h2.25v2.25Zm13.87-3H3.75a.38.38 0 0 1-.38-.38v-4.5h3.59l-.11.13.55.5.57-.63h8.06l.57.63.55-.5-.1-.13h3.57v4.5a.38.38 0 0 1-.37.38ZM22.5 12h-1.13V8.25h1.13V12Z"/>
    <path d="M11.63 2.25h.74V3h-.74v-.75Zm1.5 0h.74V3h-.74v-.75Zm-3 0h.74V3h-.74v-.75Zm-5.25 0h.75V3h-.75v-.75Zm13.5 0h.75V3h-.75v-.75Z"/>
</svg>
