<svg xmlns="http://www.w3.org/2000/svg" viewBox="0 0 50 50">
    <path d="M33.87 45.16v-3.22H16.13v3.22h-1.61V50h20.96v-4.84h-1.6Zm-16.13-1.61h14.52v1.61H17.74v-1.61Zm16.13 4.84H16.13v-1.62h17.74v1.62Z"/>
    <path d="M47.58 26.61H20.16V22.6c0-1.79-1.2-3.38-2.92-3.87l-2.72-.78v-.63a4.83 4.83 0 0 0 1.53-2.78 6.14 6.14 0 0 0 2.5-4.85c0-1.06-.3-2.06-.8-2.94v-.29a6.46 6.46 0 0 0-12.91 0v.29c-.51.88-.8 1.88-.8 2.94 0 1.88.9 3.63 2.49 4.85.19 1.1.74 2.06 1.53 2.78v.63l-2.72.78a4.05 4.05 0 0 0-2.92 3.87v4.02H0v4.84h1.61v16.13A2.42 2.42 0 0 0 4.03 50h8.87V31.45h3.23v8.87h1.61v-8.87h2.42v8.87h1.61v-8.87H25v8.87h1.61v-8.87h2.42v8.87h1.62v-8.87h1.6v7.26a2.42 2.42 0 0 0 4.85 0v-4.84a.8.8 0 0 1 1.61 0v2.42a2.42 2.42 0 0 0 4.84 0v-4.03a.8.8 0 0 1 1.61 0v10.48c0 1.05.68 1.94 1.61 2.27v2.57a.8.8 0 0 1-.8.8h-2.42v-8.06h-1.61v8.07H38.7v-5.65h-1.6V50h8.87a2.42 2.42 0 0 0 2.42-2.42v-2.57A2.42 2.42 0 0 0 50 42.74v-13.7a2.42 2.42 0 0 0-2.42-2.43Zm-33.06-12.9a3.23 3.23 0 0 1-6.46 0v-2.33a7.6 7.6 0 0 0 3.56-.81l.24-.11a8.1 8.1 0 0 0 2.66.81v2.44Zm-3.23-12.1a4.84 4.84 0 0 1 4.47 3 7.8 7.8 0 0 0-4.47-1.38A7.8 7.8 0 0 0 6.82 4.6c.73-1.76 2.46-3 4.47-3Zm-3.84 8.1-1-.26v2.71a4.3 4.3 0 0 1-.8-2.48c0-2.67 2.53-4.84 5.64-4.84S16.94 7 16.94 9.68c0 .89-.3 1.75-.82 2.49v-2.6l-.9.11c-.02 0-2.53.26-5.78-3L8.3 7.84a15.4 15.4 0 0 0 1.86 1.6 5.27 5.27 0 0 1-2.7.27ZM4.03 22.58c0-1.07.72-2.03 1.76-2.32l3.89-1.11v-.9a4.8 4.8 0 0 0 3.22 0v.9l3.9 1.1a2.43 2.43 0 0 1 1.75 2.33v4.02h-2.42v-4.84H6.45v4.84H4.03v-4Zm10.49.8v3.22H8.06v-3.2h6.46Zm-8.07 25H4.03a.8.8 0 0 1-.8-.8V31.44h3.22V48.4Zm4.84 0H8.06V31.45h3.23V48.4Zm20.97-18.55H1.6v-1.61h30.65v1.6Zm16.13 12.9a.8.8 0 0 1-1.62 0V32.26a2.42 2.42 0 0 0-4.83 0v4.03a.8.8 0 0 1-1.62 0v-2.42a2.42 2.42 0 0 0-4.84 0v4.84a.8.8 0 0 1-1.6 0V28.23h13.7c.45 0 .8.36.8.8v13.71Z"/>
    <path d="M46.5 9.07c.84-.73 1.89-1.65 1.89-3.42v-.81h-1.62v.8c0 1-.48 1.47-1.33 2.22-.84.74-1.9 1.65-1.9 3.43 0 1.78 1.06 2.7 1.9 3.43.85.75 1.33 1.22 1.33 2.21 0 1-.48 1.47-1.33 2.22-.84.74-1.9 1.65-1.9 3.43v.8h1.62v-.8c0-1 .49-1.47 1.34-2.22.84-.73 1.89-1.65 1.89-3.43 0-1.77-1.05-2.69-1.9-3.42-.84-.75-1.33-1.23-1.33-2.22 0-1 .49-1.47 1.34-2.22Zm-9.68-4.83c.84-.74 1.89-1.66 1.89-3.43V0H37.1v.8c0 1-.49 1.47-1.34 2.22-.84.74-1.89 1.65-1.89 3.43 0 1.78 1.05 2.7 1.89 3.43.85.75 1.34 1.22 1.34 2.22 0 1-.49 1.46-1.34 2.21-.84.74-1.89 1.65-1.89 3.43v.8h1.61v-.8c0-1 .49-1.47 1.34-2.21.84-.74 1.89-1.66 1.89-3.43 0-1.78-1.05-2.7-1.89-3.43-.85-.75-1.34-1.22-1.34-2.22 0-1 .49-1.47 1.34-2.21Zm-9.68 4.83c.84-.73 1.9-1.65 1.9-3.42v-.81h-1.62v.8c0 1-.48 1.47-1.34 2.22-.84.74-1.89 1.65-1.89 3.43 0 1.78 1.05 2.7 1.9 3.43.85.75 1.33 1.22 1.33 2.21 0 1-.48 1.47-1.34 2.22-.84.74-1.89 1.65-1.89 3.43v.8h1.62v-.8c0-1 .48-1.47 1.33-2.22.85-.73 1.9-1.65 1.9-3.43 0-1.77-1.05-2.69-1.9-3.42-.85-.75-1.33-1.23-1.33-2.22 0-1 .48-1.47 1.33-2.22Z"/>
</svg>
