<svg xmlns="http://www.w3.org/2000/svg" viewBox="0 0 50 50">
    <path d="M44.65 3.18a.93.93 0 0 0-1.3-.85A16.98 16.98 0 0 1 25.6.23a.93.93 0 0 0-1.22 0 17.22 17.22 0 0 1-17.74 2.1.93.93 0 0 0-1.3.85c0 .2.06 19.3 0 25.62-.04 3.38 7.85 14.35 19.18 21.08.28.16.64.16.92 0 11.35-6.73 19.24-17.7 19.2-21.08-.06-6.33 0-25.42 0-25.62ZM42.8 28.81c0 2.04-6.48 12.27-17.8 19.19C13.65 41.09 7.18 30.86 7.2 28.82c.06-5.35.02-19.73 0-24.26A19.15 19.15 0 0 0 25 2.09a19.15 19.15 0 0 0 17.8 2.47c0 4.52-.05 18.91 0 24.25Z"/>
    <path d="M39.82 8.81a.93.93 0 0 0-1.3-.85 12.34 12.34 0 0 1-12.9-1.48.93.93 0 0 0-1.23 0A12.5 12.5 0 0 1 11.52 8a.93.93 0 0 0-1.3.85c0 .14.04 14.28 0 18.97-.04 2.54 5.85 10.79 14.3 15.8.3.17.65.17.93 0 8.48-5.01 14.37-13.26 14.37-15.84-.05-4.69 0-18.82 0-18.97Z"/>
</svg>
