<svg xmlns="http://www.w3.org/2000/svg" viewBox="0 0 30 30">
    <path d="M29.58 14.58h-2.96l.9-1.54a.42.42 0 0 0-.16-.57.42.42 0 0 0-.57.15l-1.14 1.96h-2.24l2.29-3.96a.42.42 0 0 0-.73-.42l-2.53 4.38h-4.2l-1.26-2.19 2.1-3.63h5.06c.23 0 .42-.19.42-.42a.42.42 0 0 0-.42-.42h-4.58l1.13-1.94h2.26a.42.42 0 0 0 0-.84h-1.78l1.47-2.55A.42.42 0 0 0 22.5 2a.42.42 0 0 0-.57.16l-1.48 2.55-.89-1.54a.42.42 0 0 0-.73.42l1.14 1.96-1.13 1.95-2.28-3.97a.42.42 0 1 0-.73.42l2.53 4.38-2.1 3.63h-2.52l-2.1-3.63 2.53-4.38a.42.42 0 1 0-.73-.42L11.16 7.5l-1.12-1.95 1.13-1.96a.42.42 0 0 0-.73-.42l-.89 1.54-1.47-2.55a.42.42 0 1 0-.73.41l1.48 2.56H7.04a.42.42 0 0 0 0 .84H9.3l1.13 1.94H5.85a.42.42 0 0 0 0 .84h5.06l2.1 3.63-1.27 2.2H7.55L5.02 10.2a.42.42 0 0 0-.73.42l2.3 3.96H4.33L3.2 12.62a.42.42 0 0 0-.73.42l.9 1.54H.41a.42.42 0 0 0 0 .84h2.95l-.89 1.54a.42.42 0 0 0 .73.42l1.13-1.96h2.25l-2.3 3.96a.42.42 0 0 0 .37.63c.14 0 .28-.07.36-.2l2.53-4.39h4.2L13 17.61l-2.1 3.63H5.85a.42.42 0 0 0 0 .84h4.58L9.3 24.02H7.04a.42.42 0 0 0 0 .84h1.78L7.35 27.4a.42.42 0 0 0 .36.63c.14 0 .28-.07.36-.2l1.48-2.56.89 1.54a.42.42 0 1 0 .73-.42l-1.14-1.96 1.13-1.95 2.28 3.97a.42.42 0 1 0 .73-.42l-2.53-4.38 2.1-3.63h2.52l2.1 3.63-2.53 4.38a.42.42 0 0 0 .72.42l2.3-3.96 1.12 1.94-1.14 1.96a.42.42 0 0 0 .73.42l.9-1.54 1.47 2.55a.42.42 0 0 0 .57.16c.2-.12.27-.37.16-.57l-1.48-2.56h1.78a.42.42 0 0 0 0-.84H20.7l-1.13-1.95h4.58c.23 0 .42-.18.42-.41a.42.42 0 0 0-.42-.42H19.1L17 17.6l1.27-2.2h4.19l2.53 4.4a.42.42 0 1 0 .73-.43l-2.3-3.96h2.25l1.13 1.96a.42.42 0 0 0 .73-.42l-.89-1.54h2.95c.23 0 .42-.19.42-.42 0-.23-.2-.42-.42-.42Zm-12.3.84-.78 1.35-.24.42h-2.53l-.24-.42-.78-1.35-.24-.42.24-.42.78-1.35.24-.42h2.53l.25.42.77 1.35.25.42-.25.42Z"/>
</svg>
