<svg xmlns="http://www.w3.org/2000/svg" viewBox="0 0 50 50">
  <path d="M49.17 39.58h-.93a5.82 5.82 0 0 0-1.08-9.16 5.83 5.83 0 0 0-3-10.84h-7.5v-5.83a.83.83 0 0 0-.95-.82l-9.88 1.51v-.77a4.17 4.17 0 0 0 3.34-4.09c0-3.63-3.43-7.1-3.58-7.25a.83.83 0 0 0-1.18 0c-.15.14-3.58 3.62-3.58 7.25 0 1.98 1.4 3.69 3.34 4.09v1.03l-10.13 1.56c-.4.06-.7.41-.7.82v9.29a9.12 9.12 0 0 0-2.09-1.67.83.83 0 0 0-.83 0 9.2 9.2 0 0 0-4.5 6.73 9.05 9.05 0 0 0-2.85-.1.83.83 0 0 0-.67.5 9.16 9.16 0 0 0 3.17 11.09H0v1.66h1.98l1.44 2.88c.14.28.43.46.75.46h31.66c.46 0 .84-.38.84-.84v-2.5h5.31l1.44 2.88c.14.28.43.46.75.46h3.33c.46 0 .83-.38.83-.84v-2.5h.84c.46 0 .83-.37.83-.83v-3.33a.83.83 0 0 0-.83-.84Zm-.84-4.16c0 2.3-1.86 4.16-4.16 4.16h-15a4.17 4.17 0 0 1 0-8.33H40a2.5 2.5 0 0 1 0 5h-8.33a.83.83 0 0 1 0-1.67h5.83v-1.66h-5.83a2.5 2.5 0 1 0 0 5H40c2.3 0 4.16-1.87 4.17-4.17 0-.9-.3-1.78-.86-2.5h.86c2.3 0 4.16 1.87 4.16 4.17Zm-6.66-14.17a2.5 2.5 0 1 1 0 5h-8.34a.83.83 0 0 1 0-1.67h5.84v-1.66h-5.84a2.5 2.5 0 1 0 0 5h8.34a4.17 4.17 0 0 0 3.4-6.57 4.17 4.17 0 0 1-.9 8.23H32.5a4.17 4.17 0 0 1 0-8.33h9.17ZM22.5 9.58c0-2.13 1.6-4.34 2.5-5.41.9 1.07 2.5 3.28 2.5 5.41 0 1.06-.67 2-1.67 2.35v-1.51h-1.66v1.51a2.5 2.5 0 0 1-1.67-2.35ZM10.83 26.4a7.53 7.53 0 0 1 3.3 5.5 9.19 9.19 0 0 0-3.29 2.24 9.22 9.22 0 0 0-3.3-2.22 7.52 7.52 0 0 1 3.3-5.52Zm4.18 6.94a7.5 7.5 0 0 1 2.9-.41 7.5 7.5 0 0 1-7.49 9.97 7.5 7.5 0 0 1 4.6-9.56ZM3.33 35.42c0-.85.15-1.7.43-2.49l.4-.01a7.4 7.4 0 0 1 5.63 2.55 9.02 9.02 0 0 0-1.19 7.1 7.5 7.5 0 0 1-5.27-7.15Zm13.65 10.83H4.68l-.83-1.67h13.97l-.84 1.67Zm8.02 0h-6.15l.83-1.67h1.99v-1.66h-5.58a9.15 9.15 0 0 0 3.18-11.1.83.83 0 0 0-.67-.5 8.78 8.78 0 0 0-2.85.1 9.13 9.13 0 0 0-.8-2.67H15V17.8l20-3.08v4.86h-2.5a5.83 5.83 0 0 0-4.03 10.05 5.82 5.82 0 0 0-3.38 9.95h-.92a.83.83 0 0 0-.84.84v3.33c0 .46.38.83.84.83H25v1.67Zm3.65 0h-1.98v-1.67h2.81l-.83 1.67Zm6.35 0h-4.49l.84-1.67H35v1.67Zm11.67 0h-1.99l-.83-1.67h2.82v1.67Zm1.66-3.33H25v-1.67h23.33v1.67Z"/>
  <path d="M18.33 19.58h-1.66v6.67h1.66v-6.67Zm0 8.34h-1.66v1.66h1.66v-1.66Z"/>
</svg>
