<svg xmlns="http://www.w3.org/2000/svg" viewBox="0 0 50 50">
    <path d="M49.48 29.5a1.69 1.69 0 0 0-1.23-.48c-2.51.11-4.8.8-6.8 2.07-.27-.5-.56-.97-.88-1.43a.73.73 0 0 0-1.2.84 13.69 13.69 0 0 1 1.4 13L39 47.98h-7.31l-1.76-4.47v-.01a13.61 13.61 0 0 1 3.72-15.55l1.71-1.47 1.7 1.47.36.32a.73.73 0 1 0 1-1.09l-.4-.34-2.18-1.88a.73.73 0 0 0-.96 0l-.56.48c-1.03-1.56-3-2.9-5.63-3.83 1.47-.98 2.34-2.22 2.34-3.6 0-3.2-4.79-5.72-10.91-5.72-1.18 0-2.33.1-3.44.28a.73.73 0 0 0 .25 1.45c1.02-.18 2.1-.26 3.19-.26 2.6 0 5.05.49 6.87 1.38 1.64.8 2.58 1.85 2.58 2.88 0 1.02-.94 2.07-2.58 2.87a15.9 15.9 0 0 1-6.87 1.39c-2.61 0-5.05-.5-6.88-1.4-1.63-.8-2.57-1.84-2.57-2.86 0-1.19 1.25-2.39 3.34-3.21a.73.73 0 1 0-.54-1.37c-2.71 1.07-4.27 2.74-4.27 4.58 0 1.37.88 2.61 2.35 3.59-4 1.41-6.43 3.77-6.43 6.37 0 1.27.57 2.48 1.62 3.55C2.43 33.46 0 36.22 0 39.22c0 2.83 2.16 5.45 6.09 7.37 3.75 1.85 8.73 2.86 14.02 2.86 2.66 0 5.25-.25 7.68-.76 1.26.5 2.62.76 4.05.76h7.02c6.14 0 11.14-5 11.14-11.14v-7.6c0-.47-.18-.9-.52-1.22ZM30.04 47.8a9.69 9.69 0 0 1-7.87-9.5v-7.6a.2.2 0 0 1 .06-.16.22.22 0 0 1 .16-.06 12.23 12.23 0 0 1 6.22 1.92 15.07 15.07 0 0 0-.05 11.64l1.48 3.76Zm-9.93.17c-5.07 0-9.82-.96-13.38-2.7-3.4-1.67-5.26-3.82-5.26-6.06 0-1.28.6-2.52 1.78-3.7A14.66 14.66 0 0 1 8 32.6a14 14 0 0 0 3.4 1.7.73.73 0 1 0 .5-1.37c-3.33-1.2-5.32-3.05-5.32-4.94 0-2.18 2.67-4.29 6.82-5.41a18.2 18.2 0 0 0 6.7 1.17c2.56 0 4.88-.43 6.72-1.17 3.11.84 5.43 2.25 6.36 3.84l-.5.43a15.13 15.13 0 0 0-3.43 4.24 13.7 13.7 0 0 0-6.8-2.05 1.69 1.69 0 0 0-1.75 1.67v3.53h-.6c-1.79 0-3.53-.16-5.18-.48a.73.73 0 1 0-.29 1.44 28.28 28.28 0 0 0 6.07.51v2.61c0 3.86 1.97 7.27 4.96 9.27-1.79.27-3.65.4-5.55.4Zm28.42-9.67c0 4.73-3.4 8.67-7.9 9.51l1.5-3.76a15.13 15.13 0 0 0-.05-11.65 12.23 12.23 0 0 1 6.23-1.92c.08 0 .13.04.16.06a.2.2 0 0 1 .06.15v7.61ZM35.18 16.43v.52a.73.73 0 0 0 1.47 0v-.52c0-1.23 1-2.23 2.23-2.23h3.68a6.8 6.8 0 0 0 6.78-6.8V1.29a.73.73 0 0 0-1.46 0v6.13a5.32 5.32 0 0 1-5.32 5.32h-3.68a3.7 3.7 0 0 0-3.7 3.7Zm-1.84-1.69c.4 0 .73-.33.73-.73v-2.1a3.65 3.65 0 0 1 3.65-3.64h.53a3.74 3.74 0 0 0 3.74-3.74V1.28a.73.73 0 0 0-1.47 0v3.25a2.27 2.27 0 0 1-2.27 2.27h-.53a5.12 5.12 0 0 0-5.12 5.11v2.1c0 .4.33.73.74.73Z"/>
</svg>
