<svg xmlns="http://www.w3.org/2000/svg" viewBox="0 0 40 40">
    <path d="M39.67 27.33a28.88 28.88 0 0 0-9.47-4.51 17.06 17.06 0 0 0-.16-9.69.8.8 0 0 0-1.12-.43c-1.48.8-2.82 1.68-4 2.6-.8-2.8-2.24-5.71-4.3-8.66a.8.8 0 0 0-1.3 0 29.51 29.51 0 0 0-4.3 8.66 28.27 28.27 0 0 0-4-2.6.8.8 0 0 0-1.12.43c-.08.22-1.65 4.86-.16 9.7a28.7 28.7 0 0 0-9.41 4.5.8.8 0 0 0 0 1.3C5.14 32 9.79 33.7 14.14 33.7c2 0 4-.37 5.86-1.12 1.6.65 3.56 1.12 5.86 1.12 1.24 0 1.23-1.58 0-1.58-1.44 0-2.72-.2-3.86-.53.46-.27.87-.54 1.23-.8 1.3-.94 2.68-1.58 3.84-2.75a12.46 12.46 0 0 0 2.57-3.72c2.64.63 5.38 1.86 8.16 3.67a28.75 28.75 0 0 1-5.67 2.92c-.95.36-.4 1.84.55 1.49 2.28-.84 4.63-2.1 6.99-3.76a.8.8 0 0 0 0-1.3ZM19.97 8.51a25.61 25.61 0 0 1 3.72 8.39c1.05 4.74-.07 10.06-3.72 13.45-3.65-3.4-4.77-8.7-3.73-13.45a25.6 25.6 0 0 1 3.73-8.4Zm-8.83 6.07c1.3.76 2.45 1.58 3.46 2.43-.8 4.14-.13 8.47 2.21 12.01-5.25-2.94-7-8.77-5.67-14.44ZM2.2 27.98a25.91 25.91 0 0 1 8.1-3.66 13.5 13.5 0 0 0 6.5 6.48c.36.27.77.54 1.22.8-5.94 1.7-11.98-1.12-15.82-3.62Zm20.92 1.04a16.08 16.08 0 0 0 2.22-12c1-.86 2.17-1.68 3.46-2.44 1.33 5.68-.42 11.5-5.68 14.44Z"/>
    <path d="M30.1 32.36a.8.8 0 0 0-1.03-.43.8.8 0 0 0-.43 1.04c.17.4.64.6 1.04.43a.8.8 0 0 0 .42-1.04Z"/>
</svg>
