<svg xmlns="http://www.w3.org/2000/svg" viewBox="0 0 40 40">
    <path d="M26.37 23.18a.77.77 0 0 1-.43-.13.8.8 0 0 1-.22-.22.77.77 0 0 1-.13-.43.78.78 0 0 1 .63-.77.8.8 0 0 1 .58.12.78.78 0 0 1-.43 1.43Z"/>
    <path d="M34.14 5.86A19.88 19.88 0 0 0 20 0h-.02A19.88 19.88 0 0 0 5.86 5.86 19.85 19.85 0 0 0 0 19.99c0 4.52 1.47 8.78 4.26 12.32a.78.78 0 0 0 1.1.14c.33-.27.4-.76.13-1.1a18.45 18.45 0 0 1 7.1-28.23A10.4 10.4 0 0 0 20 20.77c1.1 0 2.19.2 3.21.6a.78.78 0 1 0 .58-1.45 10.5 10.5 0 0 0-3.8-.71 8.83 8.83 0 0 1-8.83-8.82A8.83 8.83 0 0 1 20 1.56h.03A18.45 18.45 0 0 1 38.43 20c0 7.52-4.53 14-11.01 16.86a10.35 10.35 0 0 0 1.96-11.73.78.78 0 1 0-1.4.68 8.78 8.78 0 0 1 .85 3.79A8.83 8.83 0 0 1 20 38.4h-.03a18.28 18.28 0 0 1-9-2.35.78.78 0 0 0-.76 1.36A19.84 19.84 0 0 0 20 39.97a19.9 19.9 0 0 0 14.14-5.85A19.85 19.85 0 0 0 40 19.99c0-5.34-2.08-10.36-5.86-14.13Z"/>
    <path d="M7.55 35.4a.75.75 0 0 1-.3-.06.81.81 0 0 1-.25-.17.79.79 0 0 1 0-1.1.75.75 0 0 1 .25-.18l.15-.04a.79.79 0 0 1 .93.77.79.79 0 0 1-.78.78ZM20 13.84a3.84 3.84 0 1 1 0-7.67 3.84 3.84 0 0 1 0 7.67Zm0-6.1a2.27 2.27 0 1 0 0 4.55 2.27 2.27 0 0 0 0-4.55Zm0 26.06a3.84 3.84 0 1 1 0-7.68 3.84 3.84 0 0 1 0 7.67Zm0-6.1a2.27 2.27 0 1 0 0 4.54 2.27 2.27 0 0 0 0-4.55Z"/>
</svg>
